<?xml version="1.0" encoding="utf-8"?>
<!-- Generator: Adobe Illustrator 25.0.1, SVG Export Plug-In . SVG Version: 6.00 Build 0)  -->
<svg version="1.1" id="레이어_1" xmlns="http://www.w3.org/2000/svg" xmlns:xlink="http://www.w3.org/1999/xlink" x="0px"
	 y="0px" viewBox="0 0 1024 1024" style="enable-background:new 0 0 1024 1024;" xml:space="preserve">
<style type="text/css">
	.st0{fill:#FFF5E0;}
	.st1{fill:#1C1C1C;}
	.st2{fill:#FFC900;}
	.st3{fill:#A3E500;}
</style>
<g>
	<circle class="st0" cx="502.22" cy="697.32" r="276.61"/>
	<path class="st1" d="M502.22,990.7c-161.77,0-293.38-131.61-293.38-293.38s131.61-293.38,293.38-293.38S795.6,535.55,795.6,697.32
		S663.99,990.7,502.22,990.7z M502.22,437.47c-143.28,0-259.85,116.57-259.85,259.85s116.57,259.85,259.85,259.85
		S762.07,840.6,762.07,697.32S645.5,437.47,502.22,437.47z"/>
	<path class="st2" d="M830.96,631.27c-3.53-0.77-6.83-0.41-9.31,1.03c-2.2,1.29-3.18,3.69-2.61,6.43
		c0.93,4.44,5.95,9.24,12.22,11.67c17.4,6.7,56.34,25.4,65.63,40.46c3.78,6.14,2.58,11.8-3.58,17.23
		c-13.07,10.53-55.86,24.58-118.93,30.57c-119.78,11.37-252.66-6.08-393.53-24.58l-15.26-1.98c-69.39-8.97-174.25-22.52-225.04-54.2
		c-8.11-5.06-13.85-11.87-15-17.77c-0.36-1.9-0.42-3.84-0.17-5.79c3.75-29.15,64.54-44.46,67.24-45.13
		c5.44-1.43,6.55-6.41,2.58-11.57c-3.96-5.18-11.75-8.89-18.13-8.63c-74.16,3.23-162.15,16.37-160.2,60.59
		c1.24,28.02,24.49,56.33,69.12,84.15c28.25,17.61,40.24,22.61,85.54,35.66c11.21,3.23,23.13,6.38,35.41,9.38
		c67.56,16.46,123.12,25.2,202.01,35.55c148.61,19.52,288.98,37.96,422.43,25.3c70.65-6.71,152.53-26.06,170.45-60.25
		c0.13-0.24,0.25-0.48,0.37-0.72c12.84-25.66-6.42-50.33-19.13-62.82C964.18,677.31,922.45,651.03,830.96,631.27z"/>
	<path class="st1" d="M738.64,840.59c-106.43,0-216.67-14.48-331.85-29.62c-79.48-10.43-135.49-19.24-203.8-35.88
		c-12.53-3.06-24.67-6.27-36.08-9.56c-46.72-13.45-60.15-19.07-89.77-37.54c-49.6-30.92-75.51-63.77-77-97.64
		c-1.26-28.56,20.11-49.58,63.53-62.48c27.99-8.32,65.9-13.56,112.69-15.6c11.97-0.47,24.85,5.63,32.17,15.2
		c5.54,7.2,7.24,15.72,4.64,23.35c-2.47,7.23-8.4,12.56-16.27,14.62c-24.98,6.18-53.5,20.41-54.87,31.05
		c-0.01,0.1-0.02,0.18-0.02,0.26c0.59,1.2,2.95,4.14,7.43,6.94c47.69,29.75,150.37,43.01,218.31,51.79l15.27,1.99
		c139.87,18.36,271.91,35.7,389.78,24.51c58.37-5.54,95.07-17.65,107.42-25.16c-9.08-8.98-35.51-23.27-54.98-30.76
		c-11.84-4.58-20.49-13.73-22.61-23.89c-2.05-9.83,2.09-19.38,10.55-24.33c6.15-3.57,13.71-4.6,21.33-2.95
		c95.41,20.6,139.85,48.91,160.33,69.03c27.07,26.6,35.23,56.59,22.37,82.28l-0.56,1.09c-25.69,49.01-137,64.63-183.66,69.06
		C801.87,839.29,770.41,840.59,738.64,840.59z M147.99,587.61c-30.33,2.5-55.42,6.65-74.78,12.4
		c-15.06,4.47-40.23,14.17-39.58,28.86c0.96,21.86,22.14,46.29,61.24,70.67c26.83,16.73,37.47,21.14,81.31,33.77
		c10.97,3.16,22.66,6.26,34.74,9.2c66.81,16.28,121.91,24.94,200.22,35.21c147.64,19.4,287.1,37.72,418.67,25.24
		c80.72-7.67,145.36-28.78,157.18-51.34c0,0,0.22-0.43,0.22-0.44c8.1-16.18-6.48-34.11-15.89-43.36c-9.92-9.74-31.27-25.56-74.78-41
		c6.18,4.86,11.38,10,14.6,15.23c8.05,13.05,5.45,27.84-6.76,38.61c-0.19,0.16-0.37,0.32-0.57,0.48
		c-18.86,15.2-69.05,28.62-127.86,34.2c-121.65,11.55-255.52-6.03-397.25-24.64l-15.29-1.99c-70.82-9.15-177.85-22.98-231.74-56.6
		c-12.3-7.67-20.53-18.17-22.58-28.81c-0.71-3.7-0.82-7.43-0.34-11.13C109.7,624.96,115.31,604.53,147.99,587.61z"/>
	<path class="st3" d="M856.2,187.14L618.26,50.44c-1.93-1.11-4.33,0.29-4.33,2.51l0.59,274.42c0.03,14.55,15.8,23.6,28.38,16.3
		l213.38-123.8C868.85,212.57,868.81,194.39,856.2,187.14z"/>
	<path class="st1" d="M864.55,172.6L626.61,35.9c-6.07-3.49-13.6-3.47-19.65,0.04c-3.32,1.89-5.91,4.75-7.61,8.09
		c-1.91,2.73-3.04,6.03-3.04,9.61l1.15,536.46c0.02,9.26,7.54,16.75,16.8,16.73c3.11-0.01,6.02-0.86,8.52-2.35
		c4.93-2.93,8.22-8.31,8.21-14.46l-0.47-219.81l234.17-135.87c0.12-0.07,0.23-0.14,0.34-0.2c10.94-6.51,17.45-17.96,17.42-30.72
		C882.42,190.56,875.73,179.03,864.55,172.6z M848.92,203.52c0,1.23-0.78,1.67-1.06,1.85L631.29,331.02l-0.54-254.07l217.1,124.73
		l0,0C848.14,201.84,848.92,202.29,848.92,203.52z"/>
</g>
</svg>
