<?xml version="1.0" encoding="utf-8"?>
<!-- Generator: Adobe Illustrator 25.0.1, SVG Export Plug-In . SVG Version: 6.00 Build 0)  -->
<svg version="1.1" id="레이어_1" xmlns="http://www.w3.org/2000/svg" xmlns:xlink="http://www.w3.org/1999/xlink" x="0px"
	 y="0px" viewBox="0 0 1024 1024" style="enable-background:new 0 0 1024 1024;" xml:space="preserve">
<style type="text/css">
	.st0{fill:#B3E220;}
	.st1{fill:#1C1C1C;}
	.st2{fill:#FFF6E3;}
	.st3{fill:#FFCB39;}
	.st4{fill:#547EBE;}
	.st5{fill:#EA4335;}
	.st6{fill:#F8BB14;}
	.st7{fill:#34A851;}
</style>
<g>
	<g>
		<path class="st0" d="M767.69,693.04H609.63H307.85H61.04c-20.55,0-37.22,16.66-37.22,37.22v32.07c0,20.56,16.66,37.22,37.22,37.22
			h246.81h301.78h158.05c20.55,0,37.22-16.66,37.22-37.22v-32.07C804.9,709.7,788.24,693.04,767.69,693.04z"/>
		<path class="st1" d="M767.69,810.64H61.04c-26.64,0-48.31-21.67-48.31-48.32v-32.07c0-26.64,21.67-48.32,48.31-48.32h706.65
			c26.64,0,48.31,21.67,48.31,48.32v32.07C816,788.97,794.33,810.64,767.69,810.64z M61.04,704.13c-14.41,0-26.12,11.72-26.12,26.13
			v32.07c0,14.41,11.72,26.13,26.12,26.13h706.65c14.41,0,26.12-11.72,26.12-26.13v-32.07c0-14.41-11.72-26.13-26.12-26.13H61.04z"
			/>
	</g>
	<g>
		<path class="st2" d="M729.46,697.47c0-169.12-141.07-306.22-315.1-306.22s-315.1,137.1-315.1,306.22
			c0,41.82,8.65,78.94,24.27,111.17c-9.98,7.83-15.39,17.87-15.39,30.84c0,63.73,128.75,173.08,304,173.08s304-109.35,304-173.08
			c0-11.56-4.29-20.79-12.26-28.21C720.32,778.44,729.46,740.44,729.46,697.47z"/>
		<path class="st1" d="M412.14,1023.67c-179.79,0-315.1-111.73-315.1-184.18c0-13.04,4.37-24.28,13.02-33.53
			c-14.53-32.83-21.89-69.28-21.89-108.49c0-174.97,146.33-317.32,326.19-317.32s326.19,142.35,326.19,317.32
			c0,40.55-7.88,78.14-23.43,111.85c6.72,8.58,10.11,18.69,10.11,30.16C727.24,911.94,591.93,1023.67,412.14,1023.67z
			 M414.36,402.35c-167.63,0-304,132.39-304,295.13c0,38.85,7.79,74.62,23.16,106.34l3.9,8.05l-7.03,5.52
			c-7.61,5.97-11.15,13-11.15,22.12c0,55.45,123.69,161.99,292.91,161.99c103.05,0,176.84-38.12,211.65-60.84
			c56.13-36.63,81.25-77.2,81.25-101.15c0-8.17-2.77-14.55-8.72-20.09l-6.08-5.66l3.72-7.43c16.19-32.35,24.4-68.97,24.4-108.84
			C718.36,534.74,581.99,402.35,414.36,402.35z"/>
	</g>
	<g>
		<path class="st2" d="M576.95,564.33h-56.08H352.23H251.77c-37.66,0-192.45,102.88-192.45,137.97v75.56
			c0,35.09,159.23,150.38,196.89,150.38h91.58h177.52h47.2c37.66,0,196.89-115.29,196.89-150.38v-75.56
			C769.4,667.22,614.61,564.33,576.95,564.33z"/>
		<path class="st1" d="M572.51,939.34h-316.3c-24.43,0-79.48-34.6-119.2-64.23c-33.16-24.74-88.78-70.26-88.78-97.24v-75.56
			c0-45.19,163.67-149.07,203.55-149.07h325.18c39.87,0,203.55,103.87,203.55,149.07v75.56c0,26.98-55.63,72.51-88.78,97.24
			C651.99,904.74,596.94,939.34,572.51,939.34z M251.77,575.43c-12.97,0-55.43,20.14-104.02,53.85
			c-53.34,37-77.33,64.98-77.33,73.03v75.56c0,8.25,24.78,38.36,79.86,79.46c50.2,37.45,93.28,59.83,105.93,59.83h316.3
			c12.65,0,55.73-22.38,105.93-59.83c55.08-41.09,79.86-71.2,79.86-79.46v-75.56c0-8.05-23.99-36.03-77.33-73.03
			c-48.6-33.71-91.05-53.85-104.02-53.85H251.77z"/>
	</g>
	<g>
		<path class="st0" d="M414.36,542.16c-248.85,0.55-306.22,93.72-306.22,208.57c0,114.77,105.75,207.86,306.22,208.55
			c200.47-0.69,306.22-93.78,306.22-208.55C720.58,635.88,663.21,542.71,414.36,542.16z"/>
		<path class="st1" d="M414.4,970.38c-97.28-0.33-178.48-22.34-234.88-63.64c-53.18-38.94-82.47-94.35-82.47-156.01
			c0-94,32.89-219.03,317.29-219.67h0.05c284.4,0.63,317.29,125.67,317.29,219.67c0,61.66-29.29,117.07-82.47,156.01
			C592.8,948.04,511.61,970.04,414.4,970.38z M414.36,553.25c-261.56,0.6-295.13,105.85-295.13,197.48
			c0,119.33,115.86,196.84,295.16,197.46c179.23-0.62,295.09-78.13,295.09-197.46C709.49,659.1,675.92,553.85,414.36,553.25z"/>
	</g>
	<g>
		<path class="st3" d="M433.85,599.84c-11.22,0-27.74,0-38.97,0c-131.89,0-244.88,37.61-244.88,132.95
			c0,99.52,105.63,180.19,262.24,180.19c0.72,0,1.42-0.03,2.13-0.03c0.72,0,1.41,0.03,2.13,0.03c156.6,0,262.24-80.67,262.24-180.19
			C678.73,637.45,565.73,599.84,433.85,599.84z"/>
		<path class="st1" d="M416.49,924.08l-2.17-0.03l-2.1,0.03c-76.71,0-146.41-19.47-196.26-54.82
			c-49.7-35.24-77.07-83.71-77.07-136.46c0-91.55,93.3-144.05,255.98-144.05h38.97c162.68,0,255.98,52.5,255.98,144.05
			c0,52.76-27.37,101.22-77.07,136.46C562.9,904.61,493.2,924.08,416.49,924.08z M414.33,901.86l2.17,0.03
			c72.15,0,137.29-18.02,183.43-50.73c43.67-30.96,67.71-73,67.71-118.36c0-40.11-22.43-71.13-66.66-92.22
			c-40.69-19.39-98.48-29.64-167.13-29.64h-38.97c-68.64,0-126.44,10.25-167.13,29.64c-44.23,21.08-66.66,52.11-66.66,92.22
			c0,45.36,24.05,87.4,67.71,118.36c46.13,32.72,111.28,50.73,183.43,50.73L414.33,901.86z"/>
	</g>
	<g>
		<path class="st2" d="M929.64,22.44c-27.16-6.15-60.95-13.8-122.22-13.8s-95.06,7.65-122.22,13.8
			c-21.38,4.84-36.82,8.34-73.33,8.34c-36.51,0-51.95-3.5-73.32-8.33c-27.15-6.15-60.95-13.8-122.21-13.8V230
			c36.51,0,51.95,3.5,73.32,8.33c27.15,6.15,60.95,13.8,122.21,13.8c61.26,0,95.06-7.65,122.22-13.8
			c21.38-4.84,36.82-8.34,73.33-8.34s51.96,3.5,73.33,8.34c27.16,6.15,60.95,13.8,122.22,13.8V30.77
			C966.46,30.77,951.02,27.27,929.64,22.44z"/>
		<path class="st1" d="M1002.97,22.47c-35.58,0-50.65-3.41-71.5-8.13C903.92,8.1,869.62,0.33,807.42,0.33
			c-62.2,0-96.49,7.77-124.05,14.01c-20.85,4.72-35.91,8.13-71.5,8.13c-35.57,0-50.63-3.41-71.49-8.13
			C512.83,8.1,478.53,0.33,416.35,0.33c-4.58,0-8.3,3.72-8.3,8.3V230c0,4.58,3.72,8.3,8.3,8.3c35.57,0,50.63,3.41,71.49,8.13
			c27.56,6.24,61.85,14.01,124.04,14.01c62.2,0,96.49-7.77,124.05-14.01c20.85-4.72,35.91-8.13,71.5-8.13s50.65,3.41,71.5,8.13
			c27.56,6.24,61.85,14.01,124.05,14.01c4.58,0,8.3-3.72,8.3-8.3V30.77C1011.28,26.19,1007.55,22.47,1002.97,22.47z M611.87,243.84
			c-60.32,0-93.62-7.54-120.39-13.6c-20.36-4.61-35.23-7.97-66.83-8.47V16.98c55.12,0.65,86.65,7.79,112.09,13.55
			c21.89,4.96,37.71,8.54,75.13,8.54c37.45,0,53.27-3.58,75.17-8.54c26.75-6.06,60.04-13.59,120.38-13.59
			c60.35,0,93.63,7.54,120.39,13.6c20.37,4.61,35.24,7.98,66.86,8.48v204.78c-55.14-0.65-86.67-7.79-112.08-13.55
			c-21.9-4.96-37.72-8.54-75.17-8.54c-37.45,0-53.27,3.58-75.17,8.54C705.51,236.3,672.22,243.84,611.87,243.84z"/>
		<g>
			<path class="st4" d="M509.24,114.43v18.6h42.96c-1.32,10.43-4.68,18.07-9.79,23.43c-6.28,6.5-16.07,13.61-33.17,13.61
				c-26.45,0-47.13-22.07-47.13-49.44s20.68-49.44,47.13-49.44c14.25,0,24.7,5.82,32.37,13.31l12.64-13.08
				c-10.67-10.73-24.99-18.9-45.01-18.9c-36.24,0-66.71,30.54-66.71,68.04c0,37.49,30.47,68.04,66.71,68.04
				c19.58,0,34.34-6.65,45.89-19.05c11.84-12.25,15.56-29.56,15.56-43.47c0-4.31-0.29-8.31-0.95-11.64H509.24z"/>
			<path class="st5" d="M618.56,105.96c-21.25,0-38.6,18.44-38.6,43.92c0,25.25,17.35,43.92,38.6,43.92
				c21.25,0,38.6-18.6,38.6-43.92C657.16,124.41,639.81,105.96,618.56,105.96z M618.56,176.49c-11.65,0-21.71-10.96-21.71-26.61
				c0-15.8,10.06-26.61,21.71-26.61c11.65,0,21.72,10.81,21.72,26.61C640.28,165.53,630.21,176.49,618.56,176.49z"/>
			<path class="st4" d="M820.49,79.18v6.5h-0.67c-4.22-4.42-12.37-8.45-22.67-8.45c-21.49,0-40.23,16.44-40.23,37.76
				c0,21.18,18.74,37.76,40.23,37.76c10.3,0,18.45-4.03,22.67-8.58h0.67v5.26c0,14.43-8.82,22.16-22.97,22.16
				c-11.56,0-18.74-7.28-21.71-13.45l-16.45,5.98c4.74,10.01,17.26,22.29,38.16,22.29c22.15,0,40.9-11.44,40.9-39.32V79.18H820.49z
				 M798.79,137.86c-13.04,0-22.97-9.75-22.97-22.88c0-13.32,9.93-22.88,22.97-22.88c12.89,0,22.97,9.75,22.97,23.01
				C821.83,128.31,811.68,137.86,798.79,137.86z"/>
			<path class="st6" d="M704.28,92.66c-21.66,0-39.35,18.44-39.35,43.92c0,25.25,17.68,43.92,39.35,43.92
				c21.66,0,39.35-18.6,39.35-43.92C743.63,111.1,725.94,92.66,704.28,92.66z M704.28,163.19c-11.88,0-22.14-10.96-22.14-26.61
				c0-15.8,10.26-26.61,22.14-26.61s22.14,10.81,22.14,26.61C726.42,152.23,716.16,163.19,704.28,163.19z"/>
			<rect x="860.19" y="47.68" class="st7" width="18.97" height="132.82"/>
			<path class="st5" d="M934.85,169.84c-9.17,0-15.66-4.46-19.9-13.31l54.82-24.26l-1.83-4.99c-3.39-9.83-13.83-27.97-35.06-27.97
				c-21.09,0-38.66,17.76-38.66,43.92c0,24.64,17.35,43.92,40.64,43.92c18.77,0,29.63-12.32,34.15-19.43l-13.97-9.98
				C950.37,165,944.02,169.84,934.85,169.84z M933.58,115.79c7.27,0,13.47,4.01,15.52,9.68l-37.04,16.4
				C912.06,123.43,924.26,115.79,933.58,115.79z"/>
		</g>
		<path class="st1" d="M416.35,5.87c-4.58,0-8.3,3.72-8.3,8.3V440.3c0,4.58,3.72,8.3,8.3,8.3c4.58,0,8.3-3.72,8.3-8.3V14.17
			C424.65,9.59,420.93,5.87,416.35,5.87z"/>
	</g>
</g>
</svg>
