<?xml version="1.0" encoding="utf-8"?>
<!-- Generator: Adobe Illustrator 25.0.1, SVG Export Plug-In . SVG Version: 6.00 Build 0)  -->
<svg version="1.1" id="레이어_1" xmlns="http://www.w3.org/2000/svg" xmlns:xlink="http://www.w3.org/1999/xlink" x="0px"
	 y="0px" viewBox="0 0 1024 1024" style="enable-background:new 0 0 1024 1024;" xml:space="preserve">
<style type="text/css">
	.st0{fill:#1C1C1C;}
	.st1{fill:#A3E500;}
	.st2{fill:#FFF5E0;}
	.st3{fill:#FFC900;}
	.st4{fill:#05F1FD;}
</style>
<path class="st0" d="M509.17,907.68c-98.48,0-195.66-27.62-273.63-77.78c-66.78-42.96-110.93-98.19-116.85-145.58
	C105.81,672.8,94.93,662,86.27,652.09c-38.5-0.9-69.54-32.49-69.54-71.2v-38.48c0-34.3,24.2-63.28,57.24-69.83
	c9.13-12.66,22.61-26.77,40.17-42.07c33.77-175.74,188.15-308.75,371-320.5c1.21-5.17,2.67-10.3,4.36-15.36
	c-14.35-9.95-22.87-25.03-22.87-41.48C466.64,23.86,494.08,0,527.81,0c33.73,0,61.17,23.86,61.17,53.18
	c0,24.87-19.55,45.97-46.63,51.66c-0.7,1.75-1.36,3.52-1.98,5.29c182.31,12.51,335.41,144.62,369.16,320.39
	c17.56,15.3,31.04,29.41,40.17,42.07c33.04,6.55,57.24,35.53,57.24,69.83v38.48c0,38.71-31.04,70.3-69.54,71.2
	c-10,11.43-22.92,24.04-38.5,37.57c-8.56,47.67-52.97,100.64-120.04,142.75C701.56,880.95,605.78,907.68,509.17,907.68z
	 M507.41,135.39l-0.03,0.17l-10.77,0.42c-176.67,6.83-326.92,134.64-357.25,303.89l-0.84,4.66l-3.61,3.08
	c-19.52,16.66-34.1,32.02-42.16,44.43l-3.43,5.28l-6.26,0.68c-22.72,2.47-39.85,21.57-39.85,44.43v38.48
	c0,24.66,20.06,44.71,44.71,44.71h10.7l3.97,4.81c9.14,11.06,21.77,23.67,37.52,37.48l4.16,3.64l0.33,5.52
	c2.4,39.72,43.72,90.97,105.26,130.55c73.75,47.44,165.84,73.57,259.29,73.57c91.69,0,182.46-25.29,255.6-71.21
	c61.92-38.88,103.54-88.23,108.63-128.8l0.64-5.09l3.9-3.33c18.38-15.71,32.88-29.95,43.11-42.33l3.97-4.81h10.7
	c24.65,0,44.71-20.06,44.71-44.71v-38.48c0-22.87-17.13-41.97-39.85-44.43l-6.26-0.68l-3.43-5.28
	c-8.06-12.41-22.64-27.77-42.16-44.43l-3.61-3.08l-0.84-4.66c-30.67-171.18-182.69-299.05-361.45-304.04L507.41,135.39z
	 M527.81,26.5c-18.79,0-34.67,12.22-34.67,26.68c0,9.59,6.89,18.52,17.99,23.3l11.97,5.16l-4.97,12.06
	c-4.17,10.13-7.19,20.64-8.97,31.23l-0.15,0.9l1.22-5.92c2.3-11.15,5.95-22.13,10.86-32.65l3.22-6.89l7.57-0.7
	c17.15-1.58,30.59-13.21,30.59-26.48C562.47,38.72,546.6,26.5,527.81,26.5z"/>
<path class="st0" d="M499.26,185.87c-0.82-2.35-19.6-58.33,18.85-121.27l22.72,13.88c-31.96,52.32-16.58,98.18-16.42,98.64
	L499.26,185.87z"/>
<g>
	<path class="st1" d="M935.72,497.77H746.1H384.05H87.94c-24.66,0-44.65,19.99-44.65,44.65v38.48c0,24.66,19.99,44.65,44.65,44.65
		h296.1H746.1h189.62c24.66,0,44.65-19.99,44.65-44.65v-38.48C980.37,517.76,960.38,497.77,935.72,497.77z"/>
	<path class="st0" d="M935.72,638.86H87.94c-31.96,0-57.96-26-57.96-57.96v-38.48c0-31.96,26-57.96,57.96-57.96h847.78
		c31.96,0,57.96,26,57.96,57.96v38.48C993.69,612.86,967.68,638.86,935.72,638.86z M87.94,511.08c-17.28,0-31.34,14.06-31.34,31.34
		v38.48c0,17.28,14.06,31.34,31.34,31.34h847.78c17.28,0,31.34-14.06,31.34-31.34v-38.48c0-17.28-14.06-31.34-31.34-31.34H87.94z"/>
</g>
<g>
	<path class="st2" d="M889.86,503.09c0-202.9-169.25-367.38-378.03-367.38S133.81,300.19,133.81,503.09
		c0,50.17,10.38,94.71,29.11,133.38c-11.97,9.39-18.47,21.44-18.47,37c0,76.45,154.47,207.65,364.72,207.65
		s364.72-131.19,364.72-207.65c0-13.86-5.14-24.94-14.71-33.85C878.89,600.23,889.86,554.63,889.86,503.09z"/>
	<path class="st0" d="M509.17,894.43c-215.7,0-378.03-134.04-378.03-220.96c0-15.65,5.24-29.13,15.62-40.22
		c-17.43-39.39-26.27-83.12-26.27-130.15c0-209.91,175.55-380.69,391.34-380.69s391.34,170.78,391.34,380.69
		c0,48.65-9.45,93.75-28.1,134.19c8.06,10.29,12.13,22.42,12.13,36.19C887.2,760.39,724.87,894.43,509.17,894.43z M511.83,149.02
		c-201.11,0-364.72,158.83-364.72,354.07c0,46.6,9.35,89.52,27.78,127.57l4.68,9.65l-8.44,6.62c-9.12,7.16-13.37,15.59-13.37,26.53
		c0,66.53,148.4,194.34,351.41,194.34c123.63,0,212.16-45.73,253.93-72.99c67.34-43.95,97.48-92.61,97.48-121.35
		c0-9.8-3.33-17.46-10.47-24.1l-7.3-6.79l4.46-8.91c19.43-38.81,29.28-82.74,29.28-130.57
		C876.55,307.86,712.94,149.02,511.83,149.02z"/>
</g>
<g>
	<path class="st2" d="M706.89,343.36h-67.28H437.29H316.77c-45.18,0-230.89,123.43-230.89,165.53v90.65
		c0,42.1,191.03,180.41,236.21,180.41h109.87h212.97h56.63c45.18,0,236.21-138.32,236.21-180.41v-90.65
		C937.78,466.79,752.07,343.36,706.89,343.36z"/>
	<path class="st0" d="M701.57,793.27H322.1c-29.31,0-95.35-41.51-143.01-77.06c-39.78-29.68-106.51-84.29-106.51-116.66v-90.65
		c0-54.22,196.36-178.84,244.2-178.84h390.12c47.84,0,244.2,124.62,244.2,178.84v90.65c0,32.37-66.73,86.99-106.51,116.66
		C796.93,751.75,730.88,793.27,701.57,793.27z M316.77,356.67c-15.56,0-66.5,24.16-124.8,64.6c-63.99,44.39-92.78,77.96-92.78,87.61
		v90.65c0,9.9,29.73,46.02,95.81,95.32c60.23,44.93,111.91,71.78,127.09,71.78h379.47c15.18,0,66.86-26.85,127.09-71.78
		c66.08-49.3,95.81-85.42,95.81-95.32v-90.65c0-9.66-28.78-43.23-92.78-87.61c-58.3-40.44-109.24-64.6-124.8-64.6H316.77z"/>
</g>
<g>
	<path class="st1" d="M511.83,316.75c-298.55,0.67-367.38,112.43-367.38,250.23c0,137.69,126.87,249.38,367.38,250.2
		c240.51-0.83,367.38-112.51,367.38-250.2C879.21,429.19,810.38,317.42,511.83,316.75z"/>
	<path class="st0" d="M511.88,830.5c-116.71-0.4-214.12-26.8-281.79-76.35c-63.81-46.72-98.95-113.19-98.95-187.17
		c0-112.77,39.46-262.78,380.66-263.54h0.06c341.2,0.76,380.66,150.77,380.66,263.54c0,73.98-35.14,140.45-98.95,187.17
		C725.91,803.69,628.5,830.1,511.88,830.5z M511.83,330.06c-313.8,0.71-354.07,126.99-354.07,236.92
		c0,143.17,139,236.15,354.11,236.89c215.02-0.74,354.02-93.73,354.02-236.89C865.9,457.05,825.63,330.78,511.83,330.06z"/>
</g>
<g>
	<path class="st3" d="M535.21,385.95c-13.46,0-33.29,0-46.75,0c-158.23,0-293.79,45.12-293.79,159.51
		c0,119.39,126.73,216.18,314.61,216.18c0.86,0,1.7-0.04,2.56-0.04c0.86,0,1.7,0.04,2.56,0.04c187.88,0,314.61-96.79,314.61-216.18
		C829,431.08,693.44,385.95,535.21,385.95z"/>
	<path class="st0" d="M514.39,774.95l-2.6-0.04l-2.52,0.04c-92.03,0-175.65-23.36-235.46-65.77
		c-59.62-42.28-92.46-100.42-92.46-163.72c0-109.83,111.93-172.82,307.1-172.82h46.75c195.17,0,307.1,62.99,307.1,172.82
		c0,63.3-32.84,121.44-92.46,163.72C690.04,751.59,606.42,774.95,514.39,774.95z M511.79,748.29l2.6,0.04
		c86.56,0,164.71-21.62,220.06-60.86c52.39-37.15,81.24-87.58,81.24-142c0-48.12-26.91-85.34-79.98-110.63
		c-48.82-23.27-118.15-35.56-200.5-35.56h-46.75c-82.35,0-151.69,12.3-200.5,35.56c-53.07,25.29-79.98,62.52-79.98,110.63
		c0,54.42,28.85,104.86,81.24,142c55.35,39.25,133.5,60.86,220.06,60.86L511.79,748.29z"/>
</g>
<ellipse class="st1" cx="527.81" cy="53.18" rx="34.61" ry="26.62"/>
<path class="st0" d="M527.81,93.12c-26.42,0-47.92-17.91-47.92-39.93s21.5-39.93,47.92-39.93s47.92,17.91,47.92,39.93
	S554.23,93.12,527.81,93.12z M527.81,39.87c-12.55,0-21.3,7.02-21.3,13.31s8.75,13.31,21.3,13.31s21.3-7.02,21.3-13.31
	S540.36,39.87,527.81,39.87z"/>
<path class="st4" d="M344.54,688.75c0,46.2-26.21,83.65-58.55,83.65s-58.55-37.45-58.55-83.65c0-31.64,27.46-82.71,44.77-111.76
	c7.25-12.17,20.31-12.17,27.56,0C317.08,606.04,344.54,657.11,344.54,688.75z"/>
<path class="st4" d="M779.5,688.75c0,46.2-26.21,83.65-58.55,83.65c-32.34,0-58.55-37.45-58.55-83.65
	c0-31.64,27.46-82.71,44.77-111.76c7.25-12.17,20.31-12.17,27.56,0C752.04,606.04,779.5,657.11,779.5,688.75z"/>
<path class="st4" d="M344.54,939.69c0,46.2-26.21,83.65-58.55,83.65s-58.55-37.45-58.55-83.65c0-31.64,27.46-82.71,44.77-111.76
	c7.25-12.17,20.31-12.17,27.56,0C317.08,856.97,344.54,908.05,344.54,939.69z"/>
<path class="st4" d="M779.5,939.69c0,46.2-26.21,83.65-58.55,83.65c-32.34,0-58.55-37.45-58.55-83.65
	c0-31.64,27.46-82.71,44.77-111.76c7.25-12.17,20.31-12.17,27.56,0C752.04,856.97,779.5,908.05,779.5,939.69z"/>
</svg>
