<?xml version="1.0" encoding="utf-8"?>
<!-- Generator: Adobe Illustrator 25.0.1, SVG Export Plug-In . SVG Version: 6.00 Build 0)  -->
<svg version="1.1" id="레이어_1" xmlns="http://www.w3.org/2000/svg" xmlns:xlink="http://www.w3.org/1999/xlink" x="0px"
	 y="0px" viewBox="0 0 1024 1024" style="enable-background:new 0 0 1024 1024;" xml:space="preserve">
<style type="text/css">
	.st0{fill:#FFF6E3;}
	.st1{fill:#1C1C1C;}
	.st2{fill:#FFCB39;}
	.st3{fill:#FA0002;}
</style>
<g>
	<g>
		<circle class="st0" cx="502.41" cy="641.75" r="276.95"/>
		<path class="st1" d="M502.41,935.49c-161.97,0-293.74-131.77-293.74-293.74c0-161.97,131.77-293.74,293.74-293.74
			s293.74,131.77,293.74,293.74C796.15,803.72,664.38,935.49,502.41,935.49z M502.41,381.58c-143.46,0-260.17,116.71-260.17,260.17
			c0,143.46,116.71,260.17,260.17,260.17s260.17-116.71,260.17-260.17C762.58,498.29,645.87,381.58,502.41,381.58z"/>
	</g>
	<g>
		<path class="st2" d="M831.56,575.62c-3.53-0.77-6.84-0.41-9.32,1.03c-2.21,1.29-3.18,3.7-2.61,6.44
			c0.93,4.45,5.95,9.25,12.24,11.68c17.42,6.7,56.41,25.43,65.71,40.51c3.79,6.15,2.59,11.81-3.58,17.25
			c-13.08,10.54-55.92,24.61-119.07,30.61c-119.92,11.39-252.97-6.09-394.01-24.61l-15.28-1.99
			c-69.47-8.98-174.46-22.55-225.31-54.26c-8.12-5.07-13.87-11.89-15.01-17.79c-0.36-1.9-0.42-3.85-0.17-5.8
			c3.75-29.19,64.62-44.51,67.32-45.18c5.45-1.43,6.56-6.42,2.58-11.58c-3.97-5.18-11.76-8.9-18.15-8.64
			c-74.25,3.24-162.35,16.39-160.4,60.67c1.24,28.05,24.52,56.4,69.21,84.26c28.28,17.63,40.29,22.64,85.65,35.7
			c11.22,3.23,23.15,6.39,35.45,9.39c67.64,16.48,123.27,25.23,202.26,35.59c148.79,19.55,289.33,38.01,422.95,25.33
			c70.74-6.72,152.72-26.1,170.66-60.32c0.13-0.24,0.25-0.48,0.37-0.72c12.85-25.69-6.43-50.39-19.15-62.89
			C964.95,621.71,923.16,595.4,831.56,575.62z"/>
		<path class="st1" d="M739.11,785.2c-106.57,0-216.94-14.5-332.25-29.66c-79.58-10.44-135.67-19.26-204.05-35.92
			c-12.56-3.07-24.71-6.29-36.12-9.57c-46.77-13.47-60.21-19.09-89.88-37.58C27.14,641.5,1.2,608.61-0.29,574.7
			c-1.26-28.6,20.14-49.64,63.61-62.56c28.03-8.33,65.98-13.58,112.83-15.62c12-0.54,24.88,5.63,32.21,15.21
			c5.55,7.21,7.25,15.75,4.64,23.38c-2.47,7.23-8.41,12.57-16.29,14.64c-25.01,6.18-53.56,20.43-54.93,31.09
			c-0.01,0.09-0.02,0.18-0.02,0.26c0.49,0.95,2.6,3.93,7.44,6.95c47.75,29.78,150.55,43.07,218.58,51.86l15.3,1.99
			c140.04,18.39,272.23,35.75,390.26,24.54c58.44-5.54,95.19-17.67,107.56-25.19c-9.1-8.99-35.55-23.3-55.05-30.8
			c-11.85-4.59-20.51-13.74-22.64-23.92c-2.06-9.84,2.09-19.4,10.56-24.36c6.19-3.58,13.75-4.61,21.39-2.94
			c95.52,20.63,140,48.97,160.5,69.11c27.11,26.62,35.27,56.65,22.4,82.37c-0.15,0.31-0.36,0.71-0.57,1.12
			c-25.7,49.05-137.15,64.68-183.87,69.12C802.42,783.9,770.92,785.2,739.11,785.2z M147.75,531.91
			c-30.37,2.5-55.49,6.66-74.87,12.42c-15.08,4.48-40.28,14.19-39.63,28.89c0.97,21.88,22.17,46.35,61.32,70.75
			c26.87,16.75,37.52,21.17,81.41,33.81c10.97,3.16,22.67,6.26,34.79,9.22c66.89,16.3,122.06,24.96,200.47,35.25
			c147.81,19.42,287.44,37.76,419.18,25.27c80.82-7.68,145.54-28.82,157.38-51.4c0.02-0.04,0.2-0.4,0.22-0.44
			c8.11-16.21-6.48-34.15-15.9-43.41c-9.93-9.76-31.3-25.59-74.86-41.05c6.18,4.86,11.38,10.01,14.61,15.24
			c8.06,13.06,5.46,27.88-6.77,38.66c-0.18,0.16-0.38,0.32-0.57,0.48c-18.89,15.22-69.14,28.66-128.02,34.24
			c-121.81,11.56-255.83-6.04-397.72-24.67l-15.32-1.99c-70.9-9.16-178.07-23.01-232.03-56.67c-12.31-7.68-20.55-18.19-22.61-28.84
			c-0.71-3.71-0.82-7.45-0.33-11.15C109.41,569.3,115.02,548.85,147.75,531.91z"/>
	</g>
	<g>
		<g>
			<path class="st3" d="M768.84,125.61c4.1,0,6.84,3.19,6.84,7.3l-10.03,273.21c0,4.11-3.19,6.84-7.3,6.84h-63.4
				c-4.11,0-7.3-2.74-7.3-6.84l-10.03-273.21c0-4.11,2.74-7.3,6.84-7.3H768.84z M767.93,449.45c4.11,0,6.84,2.74,6.84,6.84v71.61
				c0,4.11-2.74,6.84-6.84,6.84h-81.64c-4.11,0-6.84-2.74-6.84-6.84v-71.61c0-4.11,2.74-6.84,6.84-6.84H767.93z"/>
			<path class="st1" d="M768.84,125.61c4.1,0,6.84,3.19,6.84,7.3l-10.03,273.21c0,4.11-3.19,6.84-7.3,6.84h-63.4
				c-4.11,0-7.3-2.74-7.3-6.84l-10.03-273.21c0-4.11,2.74-7.3,6.84-7.3H768.84 M767.93,449.45c4.11,0,6.84,2.74,6.84,6.84v71.61
				c0,4.11-2.74,6.84-6.84,6.84h-81.64c-4.11,0-6.84-2.74-6.84-6.84v-71.61c0-4.11,2.74-6.84,6.84-6.84H767.93 M768.84,87.84h-84.38
				c-25.01,0-44.61,19.79-44.61,45.06c0,0.46,0.01,0.92,0.03,1.39l10.02,272.78c0.13,6.5,1.6,12.61,4.15,18.09
				c-7.7,7.98-12.37,18.91-12.37,31.12v71.61c0,25.01,19.59,44.61,44.61,44.61h81.64c25.01,0,44.61-19.59,44.61-44.61v-71.61
				c0-12.55-4.93-23.73-13-31.76c2.37-5.32,3.74-11.21,3.86-17.46l10.02-272.78c0.02-0.46,0.03-0.92,0.03-1.39
				C813.45,107.64,793.85,87.84,768.84,87.84L768.84,87.84z"/>
		</g>
	</g>
</g>
</svg>
