<?xml version="1.0" encoding="utf-8"?>
<!-- Generator: Adobe Illustrator 25.0.1, SVG Export Plug-In . SVG Version: 6.00 Build 0)  -->
<svg version="1.1" id="레이어_1" xmlns="http://www.w3.org/2000/svg" xmlns:xlink="http://www.w3.org/1999/xlink" x="0px"
	 y="0px" viewBox="0 0 1024 1024" style="enable-background:new 0 0 1024 1024;" xml:space="preserve">
<style type="text/css">
	.st0{fill:#1C1C1C;}
	.st1{fill:#B3E220;}
	.st2{fill:#FFF6E3;}
	.st3{fill:#FFCB39;}
</style>
<g>
	<path class="st0" d="M563.33,146.64c-9.02,0-16.33-7.31-16.33-16.33V16.33c0-5.25,2.52-10.18,6.78-13.25
		c4.26-3.07,9.73-3.91,14.71-2.25c4.77,1.59,47,16.52,61.52,51.59c7.36,17.78,6,37.65-3.92,57.47c-4.04,8.06-13.84,11.33-21.92,7.29
		c-8.06-4.04-11.33-13.85-7.29-21.92c5.69-11.37,6.67-21.27,2.98-30.26c-3.72-9.05-11.85-16.56-20.19-22.2v87.5
		C579.67,139.33,572.36,146.64,563.33,146.64z"/>
	<g>
		<path class="st1" d="M959.87,604.9H759.52H376.99H64.13c-26.06,0-47.18,21.12-47.18,47.18v40.65c0,26.06,21.12,47.18,47.18,47.18
			h312.86h382.54h200.34c26.06,0,47.18-21.12,47.18-47.18v-40.65C1007.05,626.02,985.92,604.9,959.87,604.9z"/>
		<path class="st0" d="M959.87,753.97H64.13c-33.77,0-61.24-27.47-61.24-61.24v-40.65c0-33.77,27.47-61.24,61.24-61.24h895.74
			c33.77,0,61.24,27.47,61.24,61.24v40.65C1021.11,726.5,993.64,753.97,959.87,753.97z M64.13,618.96
			c-18.26,0-33.11,14.86-33.11,33.12v40.65c0,18.26,14.85,33.12,33.11,33.12h895.74c18.26,0,33.11-14.86,33.11-33.12v-40.65
			c0-18.26-14.85-33.12-33.11-33.12H64.13z"/>
	</g>
	<g>
		<path class="st2" d="M911.41,610.52c0-214.37-178.82-388.16-399.41-388.16S112.59,396.15,112.59,610.52
			c0,53.01,10.97,100.07,30.76,140.92c-12.65,9.92-19.51,22.65-19.51,39.1c0,80.78,163.21,219.4,385.35,219.4
			s385.35-138.62,385.35-219.4c0-14.65-5.43-26.36-15.54-35.76C899.82,713.16,911.41,664.98,911.41,610.52z"/>
		<path class="st0" d="M509.19,1024c-227.9,0-399.41-141.63-399.41-233.46c0-16.53,5.54-30.78,16.5-42.5
			c-18.42-41.62-27.75-87.82-27.75-137.52C98.52,388.74,284.01,208.3,512,208.3s413.48,180.44,413.48,402.23
			c0,51.4-9.98,99.05-29.69,141.78c8.51,10.87,12.82,23.69,12.82,38.23C908.6,882.37,737.09,1024,509.19,1024z M512,236.43
			c-212.48,0-385.35,167.82-385.35,374.1c0,49.24,9.88,94.59,29.35,134.79l4.94,10.2l-8.91,7c-9.64,7.57-14.13,16.47-14.13,28.03
			c0,70.29,156.79,205.33,371.28,205.33c130.62,0,224.16-48.32,268.29-77.12c71.15-46.43,102.99-97.85,102.99-128.21
			c0-10.35-3.51-18.45-11.06-25.46l-7.71-7.17l4.71-9.42c20.53-41,30.93-87.42,30.93-137.96C897.35,404.25,724.48,236.43,512,236.43
			z"/>
	</g>
	<g>
		<path class="st2" d="M718.1,441.76h-71.08H433.24H305.9c-47.73,0-243.95,130.41-243.95,174.89v95.78
			c0,44.48,201.84,190.62,249.57,190.62h116.09h225.02h59.83c47.73,0,249.57-146.14,249.57-190.62v-95.78
			C962.04,572.17,765.83,441.76,718.1,441.76z"/>
		<path class="st0" d="M712.47,917.11H311.53c-30.97,0-100.75-43.86-151.1-81.42C118.4,804.34,47.89,746.63,47.89,712.43v-95.78
			c0-57.29,207.47-188.96,258.01-188.96H718.1c50.54,0,258.01,131.67,258.01,188.96v95.78c0,34.2-70.51,91.91-112.54,123.26
			C813.22,873.25,743.44,917.11,712.47,917.11z M305.9,455.82c-16.44,0-70.26,25.53-131.86,68.26
			c-67.61,46.9-98.03,82.37-98.03,92.57v95.78c0,10.46,31.41,48.63,101.23,100.72c63.63,47.47,118.24,75.84,134.28,75.84h400.94
			c16.03,0,70.64-28.37,134.28-75.84c69.82-52.09,101.23-90.25,101.23-100.72v-95.78c0-10.21-30.41-45.67-98.02-92.57
			c-61.6-42.73-115.42-68.26-131.86-68.26H305.9z"/>
	</g>
	<g>
		<path class="st1" d="M512,413.65c-315.44,0.7-388.16,118.8-388.16,264.38c0,145.48,134.05,263.48,388.16,264.36
			c254.11-0.88,388.16-118.88,388.16-264.36C900.16,532.44,827.44,414.35,512,413.65z"/>
		<path class="st0" d="M512.05,956.45c-123.31-0.42-226.23-28.32-297.73-80.67c-67.42-49.36-104.54-119.59-104.54-197.75
			c0-119.15,41.69-277.64,402.19-278.45h0.06c360.5,0.8,402.19,159.3,402.19,278.45c0,78.16-37.13,148.39-104.54,197.75
			C738.19,928.13,635.27,956.03,512.05,956.45z M512,427.71c-331.55,0.76-374.1,134.17-374.1,250.32
			c0,151.26,146.86,249.51,374.15,250.29c227.19-0.78,374.05-99.03,374.05-250.29C886.1,561.88,843.55,428.47,512,427.71z"/>
	</g>
	<g>
		<path class="st3" d="M536.7,486.76c-14.23,0-35.17,0-49.4,0c-167.18,0-310.41,47.67-310.41,168.53
			c0,126.15,133.9,228.41,332.41,228.41c0.91,0,1.79-0.04,2.7-0.04c0.91,0,1.79,0.04,2.7,0.04c198.51,0,332.41-102.26,332.41-228.41
			C847.11,534.44,703.88,486.76,536.7,486.76z"/>
		<path class="st0" d="M514.7,897.76l-2.75-0.04l-2.66,0.04c-97.24,0-185.59-24.68-248.78-69.49c-63-44.67-97.69-106.1-97.69-172.98
			c0-116.04,118.27-182.59,324.47-182.59h49.4c206.21,0,324.47,66.55,324.47,182.59c0,66.88-34.69,128.31-97.69,172.98
			C700.29,873.09,611.94,897.76,514.7,897.76z M511.96,869.59l2.75,0.04c91.46,0,174.03-22.84,232.51-64.31
			c55.35-39.25,85.83-92.53,85.83-150.04c0-50.84-28.43-90.17-84.5-116.89c-51.58-24.58-124.83-37.58-211.85-37.58h-49.4
			c-87.01,0-160.27,12.99-211.85,37.58c-56.07,26.72-84.5,66.05-84.5,116.89c0,57.5,30.48,110.79,85.83,150.04
			c58.48,41.47,141.05,64.31,232.51,64.31L511.96,869.59z"/>
	</g>
	<g>
		<ellipse class="st1" cx="528.88" cy="135.17" rx="36.57" ry="28.13"/>
		<path class="st0" d="M528.88,177.36c-27.92,0-50.63-18.93-50.63-42.19s22.71-42.19,50.63-42.19c27.92,0,50.63,18.93,50.63,42.19
			S556.79,177.36,528.88,177.36z M528.88,121.1c-13.26,0-22.5,7.41-22.5,14.06s9.24,14.06,22.5,14.06s22.5-7.41,22.5-14.06
			S542.14,121.1,528.88,121.1z"/>
	</g>
	<g>
		<path class="st2" d="M749.81,636.24c1.11,0.68,2.09,1.45,3.14,2.21c1.16,1.04,0.96,0.84-0.59-0.61c0.44,0.47,0.86,0.96,1.26,1.46
			c0.49,0.61,2.24,2.37,2.24,3.16c-1.1-1.85-1.27-2.08-0.5-0.69c0.3,0.58,0.58,1.16,0.85,1.75c0.54,1.18,1.03,2.38,1.47,3.59
			c0.22,0.61,0.43,1.22,0.62,1.84c0.47,1.55,0.38,1.23-0.26-0.96c-0.06,0.03,1.22,6.51,1.29,7.14c0.12,1.13,0.17,2.25,0.26,3.38
			c0.05,1.62,0.06,1.29,0.02-1c-0.01,0.65-0.02,1.29-0.05,1.94c-0.12,2.58-0.43,5.16-0.92,7.7c-0.12,0.63-0.26,1.27-0.4,1.9
			c-0.38,1.54-0.3,1.26,0.23-0.84c0.27,0.36-1.05,3.22-1.22,3.68c-0.45,1.21-0.95,2.4-1.5,3.57c-0.36,0.78-2.53,4.71-0.42,1.05
			c-2.01,3.49-3.36,6.63-2.77,10.79c0.5,3.53,2.68,7.53,5.68,9.59c5.86,4.02,16.31,4.13,20.38-2.91
			c7.63-13.22,11.22-27.66,9.54-42.97c-1.55-14.17-8.22-30.36-20.86-38.07c-3.39-2.06-6.72-3.35-10.79-2.77
			c-3.53,0.5-7.53,2.68-9.59,5.68C742.79,621.85,742.86,632.01,749.81,636.24L749.81,636.24z"/>
		<circle class="st2" cx="744.64" cy="724.42" r="14.56"/>
	</g>
	<path class="st0" d="M511.4,777.33c-26.11,0-55.75-7.52-86-30.05c-4.13-3.08-4.99-8.92-1.91-13.06c3.08-4.14,8.93-4.99,13.06-1.91
		c78.71,58.62,150.6,2.62,153.62,0.2c4.02-3.21,9.89-2.57,13.11,1.45c3.22,4.02,2.59,9.88-1.42,13.1
		C601.3,747.53,563.38,777.33,511.4,777.33z"/>
</g>
</svg>
