<?xml version="1.0" encoding="utf-8"?>
<!-- Generator: Adobe Illustrator 25.0.1, SVG Export Plug-In . SVG Version: 6.00 Build 0)  -->
<svg version="1.1" id="레이어_1" xmlns="http://www.w3.org/2000/svg" xmlns:xlink="http://www.w3.org/1999/xlink" x="0px"
	 y="0px" viewBox="0 0 1024 1024" style="enable-background:new 0 0 1024 1024;" xml:space="preserve">
<style type="text/css">
	.st0{fill:#FFF6E3;}
	.st1{fill:#1C1C1C;}
	.st2{fill:#FFCB39;}
	.st3{fill:#B3E220;}
</style>
<g>
	<g>
		<circle class="st0" cx="434.91" cy="630.39" r="239.27"/>
		<path class="st1" d="M434.91,884.16c-139.93,0-253.77-113.84-253.77-253.77c0-139.93,113.84-253.77,253.77-253.77
			s253.78,113.84,253.78,253.77C688.69,770.32,574.84,884.16,434.91,884.16z M434.91,405.62c-123.94,0-224.77,100.83-224.77,224.77
			c0,123.94,100.83,224.77,224.77,224.77s224.77-100.83,224.77-224.77C659.69,506.45,558.85,405.62,434.91,405.62z"/>
	</g>
	<g>
		<path class="st2" d="M719.28,573.26c-3.05-0.67-5.91-0.35-8.05,0.89c-1.91,1.12-2.75,3.19-2.26,5.56
			c0.8,3.84,5.14,7.99,10.57,10.09c15.05,5.79,48.73,21.97,56.77,35c3.27,5.31,2.23,10.21-3.1,14.91
			c-11.3,9.11-48.32,21.26-102.87,26.44c-103.61,9.84-218.55-5.26-340.4-21.26l-13.2-1.72c-60.02-7.76-150.72-19.48-194.66-46.88
			c-7.02-4.38-11.98-10.27-12.97-15.37c-0.31-1.64-0.36-3.32-0.15-5.01c3.24-25.21,55.82-38.46,58.16-39.04
			c4.71-1.24,5.66-5.54,2.23-10.01c-3.43-4.48-10.16-7.69-15.68-7.47c-64.15,2.8-140.26,14.16-138.57,52.41
			c1.07,24.24,21.19,48.73,59.79,72.79c24.43,15.23,34.81,19.56,74,30.84c9.7,2.79,20,5.52,30.63,8.11
			c58.44,14.24,106.5,21.79,174.74,30.75c128.55,16.89,249.97,32.84,365.41,21.89c61.12-5.81,131.94-22.54,147.44-52.11
			c0.11-0.21,0.21-0.41,0.32-0.62c11.11-22.19-5.55-43.54-16.55-54.34C834.52,613.07,798.41,590.34,719.28,573.26z"/>
		<path class="st1" d="M639.41,754.31c-92.06,0-187.42-12.53-287.05-25.62c-68.77-9.02-117.23-16.65-176.29-31.04
			c-10.84-2.64-21.34-5.43-31.21-8.27c-40.42-11.64-52.03-16.49-77.65-32.47c-42.9-26.75-65.31-55.17-66.6-84.46
			c-1.09-24.7,17.4-42.89,54.95-54.05c24.21-7.19,57.01-11.73,97.48-13.5c10.33-0.41,21.49,4.87,27.83,13.15
			c4.79,6.22,6.26,13.59,4.01,20.19c-2.13,6.25-7.26,10.87-14.07,12.66c-21.62,5.34-46.29,17.65-47.47,26.86
			c-0.01,0.08-0.01,0.16-0.01,0.23c0.51,1.04,2.55,3.58,6.43,6c41.24,25.72,130.03,37.2,188.79,44.8l13.25,1.72
			c121,15.89,235.21,30.89,337.17,21.2c50.49-4.79,82.24-15.27,92.92-21.77c-7.86-7.77-30.71-20.13-47.56-26.61
			c-10.24-3.96-17.73-11.87-19.56-20.67c-1.78-8.49,1.81-16.76,9.13-21.04c5.32-3.08,11.85-3.99,18.44-2.54
			c82.54,17.82,120.97,42.31,138.68,59.71c23.42,23,30.47,48.94,19.35,71.17l-0.5,0.96c-22.21,42.37-118.49,55.88-158.86,59.72
			C694.11,753.19,666.9,754.31,639.41,754.31z M128.5,535.49c-26.24,2.16-47.94,5.75-64.68,10.73
			c-13.03,3.87-34.8,12.26-34.24,24.96c0.83,18.91,19.15,40.04,52.97,61.13c23.21,14.47,32.41,18.29,70.34,29.21
			c9.49,2.73,19.6,5.41,30.05,7.96c57.77,14.08,105.44,21.57,173.19,30.46c127.71,16.78,248.32,32.63,362.15,21.83
			c69.83-6.63,125.74-24.9,135.96-44.41c0,0,0.19-0.38,0.19-0.38c7.01-14-5.6-29.51-13.74-37.5c-8.58-8.43-27.05-22.11-64.69-35.47
			c5.35,4.21,9.85,8.66,12.64,13.18c6.96,11.28,4.72,24.08-5.85,33.4c-0.16,0.14-0.32,0.28-0.49,0.41
			c-16.31,13.15-59.72,24.76-110.6,29.59c-105.23,9.98-221.02-5.22-343.61-21.31l-13.24-1.72C253.57,649.64,161,637.67,114.4,608.6
			c-10.64-6.64-17.75-15.72-19.54-24.92c-0.61-3.2-0.7-6.42-0.29-9.63C95.38,567.79,100.23,550.12,128.5,535.49z"/>
	</g>
	<g>
		<path class="st3" d="M554.55,597.76c-4.39,0-8.8-0.53-13.15-1.61c-16.86-4.2-30.69-16.2-37.23-32.3l-94.26-232.02
			c-11.3-27.83,2.09-59.55,29.91-70.85c27.82-11.31,59.55,2.09,70.85,29.91l66.19,162.93l341.58-285.69
			c23.04-19.27,57.33-16.21,76.6,6.83c19.27,23.04,16.21,57.33-6.83,76.6L589.44,585.09C579.55,593.36,567.16,597.76,554.55,597.76z
			"/>
		<path class="st1" d="M554.55,614.07c-5.75,0-11.5-0.7-17.09-2.1c-21.84-5.44-39.93-21.13-48.4-41.99L394.8,337.96
			c-7.11-17.49-6.98-36.71,0.37-54.11c7.34-17.4,21.02-30.89,38.52-38c17.49-7.11,36.7-6.97,54.1,0.37
			c17.4,7.35,30.89,21.03,38,38.52l57.78,142.21l324.42-271.34c29.9-25.01,74.57-21.03,99.58,8.87
			c25.01,29.9,21.03,74.58-8.88,99.58L599.9,597.61C587.21,608.22,571.1,614.07,554.55,614.07z M460.29,273.27
			c-4.85,0-9.7,0.94-14.33,2.82c-9.42,3.83-16.79,11.09-20.74,20.46c-3.95,9.37-4.03,19.71-0.2,29.13l94.26,232.02
			c4.56,11.23,14.31,19.68,26.06,22.61c11.68,2.91,24.42-0.04,33.63-7.74l398.79-333.53c16.1-13.47,18.24-37.52,4.78-53.62
			c-13.46-16.1-37.52-18.24-53.62-4.78L570.17,480.69l-74.61-183.66c-3.83-9.42-11.09-16.79-20.46-20.74
			C470.33,274.28,465.31,273.27,460.29,273.27z"/>
	</g>
</g>
</svg>
