<?xml version="1.0" encoding="utf-8"?>
<!-- Generator: Adobe Illustrator 25.0.1, SVG Export Plug-In . SVG Version: 6.00 Build 0)  -->
<svg version="1.1" id="레이어_1" xmlns="http://www.w3.org/2000/svg" xmlns:xlink="http://www.w3.org/1999/xlink" x="0px"
	 y="0px" viewBox="0 0 2042 412" style="enable-background:new 0 0 2042 412;" xml:space="preserve">
<style type="text/css">
	.st0{opacity:0.7;}
	.st1{fill:#1C1C1C;}
	.st2{fill:#FFF6E3;}
	.st3{fill:#FFCB39;}
</style>
<g class="st0">
	<path class="st1" d="M2002.78,67.98l-55.33,0c0,0,0,0,0,0c-10.4,0-20.38,4.13-27.73,11.49c-7.36,7.35-11.49,17.33-11.49,27.73
		l0,39.29l-73.25-68.03c-7.25-6.74-16.79-10.48-26.69-10.48h-60.43c0,0,0,0,0,0c-16.48,0-30.57,10.18-36.37,24.59
		c-15.13-9.62-32.86-17-52.85-21.9c-20.22-4.95-42.91-7.47-67.44-7.47c0,0-0.01,0-0.01,0c-24.52,0-47.24,2.51-67.53,7.45
		c-19.19,4.67-36.33,11.58-51.09,20.57c-3.57-3.24-7.76-5.85-12.44-7.62c-8.03-3.04-16.24-5.82-24.41-8.26
		c-8.37-2.5-17.13-4.69-26.04-6.51c-9.14-1.86-18.83-3.28-28.81-4.23c-9.84-0.93-20.44-1.4-31.51-1.4c0,0-0.01,0-0.01,0
		c-23.87,0-46.35,2.4-66.8,7.15c-21.98,5.09-41.49,13.07-58,23.73c-1.41,0.91-2.75,1.87-4.11,2.82
		c-4.69-6.78-11.48-12.08-19.66-14.85c-16.25-5.5-34.2-10.05-53.36-13.51c-19.56-3.54-40.86-5.33-63.29-5.33
		c-14.76,0-29.33,0.94-43.32,2.79c-14.53,1.93-28.45,4.96-41.39,9.03c-13.57,4.27-26.3,9.83-37.83,16.55
		c-1.35,0.79-2.67,1.6-3.98,2.42c-5.43-15.16-19.87-26.02-36.89-26.02h-55.33c0,0,0,0,0,0c-10.4,0-20.38,4.13-27.73,11.49
		c-7.36,7.36-11.49,17.33-11.49,27.73l0,39.29l-73.25-68.03c-7.25-6.74-16.79-10.48-26.69-10.48l-60.43,0c0,0,0,0,0,0
		c-5.45,0-10.63,1.11-15.35,3.12c-4.72-2.01-9.9-3.12-15.35-3.12h-55.63c0,0,0,0,0,0c-10.4,0-20.38,4.13-27.73,11.49
		c-1.9,1.9-3.58,3.99-5.03,6.2c-8.6-5.09-18.4-9.16-29.34-12.11c-13.92-3.75-29.75-5.58-48.37-5.58l-139.46,0
		c-12.88,0-24.28,6.24-31.43,15.84c-2.3-1.37-4.67-2.66-7.12-3.81c-7.17-3.37-14.92-6.01-23.04-7.85
		c-7.24-1.64-14.88-2.78-22.73-3.38c-6.92-0.53-13.91-0.79-20.75-0.79l-42.97,0c-2.06-4.9-5.02-9.51-8.9-13.58
		C129.19,9.18,89.73-8.09,55.26,3.04c-29.28,9.45-48.37,33-53.75,66.3c-3.15,19.47-1.36,30.28,5.28,50.99
		c1.56,4.86,3.38,9.95,5.42,15.13c7.67,19.42,15.73,35.59,26.16,54.01l0,105c0,21.66,17.56,39.22,39.22,39.22l58.59,0
		c7.32,8.03,15.05,15.91,23.35,23.61c51.03,47.33,88.18,54.72,105.71,54.91l0.98,0c27.06,0,50.74-13.51,63.35-36.15
		c6.88-12.34,9.84-26.51,8.94-42.38h46.6c0,0,0,0,0,0c21.66,0,39.22-17.56,39.22-39.22l0-29.76h4.1l50.7,56.07
		c7.44,8.22,18,12.91,29.09,12.91l65.08,0c0,0,0,0,0,0c1.09,0,2.17-0.06,3.24-0.14c0.95,0.07,1.9,0.14,2.87,0.14l55.63,0
		c0,0,0,0,0,0c5.33,0,10.54-1.1,15.35-3.15c4.81,2.05,10.02,3.15,15.35,3.15l55.63,0c0,0,0,0,0,0c21.66,0,39.22-17.56,39.22-39.22
		l0-38.94l73.15,67.72c7.25,6.71,16.76,10.44,26.64,10.44l60.28,0c0,0,0,0,0,0c10.4,0,20.38-4.13,27.73-11.49
		c3.92-3.92,6.89-8.59,8.84-13.66c0.87,0.54,1.73,1.1,2.62,1.63c11.39,6.79,24.05,12.41,37.61,16.71
		c12.88,4.08,26.82,7.14,41.44,9.06c14.04,1.85,28.83,2.79,43.97,2.79c9.6,0,19.91-0.4,30.65-1.2c10.53-0.78,21.18-1.9,31.66-3.31
		c10.55-1.42,20.95-3.18,30.91-5.21c10.33-2.1,19.93-4.51,28.51-7.14c8.16-2.51,15.03-7.51,19.89-14.01
		c16.5,10.65,36.01,18.63,57.99,23.72c20.46,4.74,42.94,7.15,66.82,7.15c11.08,0,21.69-0.47,31.51-1.4
		c9.98-0.94,19.67-2.37,28.8-4.23c8.88-1.81,17.64-4,26.05-6.51c0,0,0,0,0,0c8.16-2.44,16.37-5.22,24.4-8.26
		c4.69-1.77,8.88-4.39,12.45-7.62c14.75,8.99,31.9,15.9,51.09,20.57c20.3,4.95,43.03,7.46,67.55,7.46c24.54,0,47.23-2.51,67.44-7.46
		c20.03-4.91,37.79-12.3,52.93-21.95c1.95,4.77,4.84,9.17,8.56,12.88c7.36,7.36,17.33,11.49,27.73,11.49l55.63,0c0,0,0,0,0,0
		c21.66,0,39.22-17.56,39.22-39.22l0-38.93l73.15,67.72c7.25,6.71,16.76,10.44,26.64,10.44h60.28c0,0,0,0,0,0
		c10.4,0,20.38-4.13,27.73-11.49c7.36-7.36,11.49-17.33,11.49-27.73l0-187.31C2042,85.54,2024.44,67.98,2002.78,67.98z
		 M1396.55,214.41c-5.87,1.69-12.55,3.08-19.85,4.13c-7.19,1.04-15.64,1.57-25.12,1.57c-9.48,0-17.71-0.58-24.49-1.71
		c-6.22-1.04-11.46-2.39-15.59-4.02c-4-1.58-5.88-2.91-6.51-3.42c-1.64-1.33-2.38-2.29-2.69-2.77c-0.53-0.82-0.72-1.4-0.82-1.82
		c-0.44-1.79-0.66-3.55-0.66-5.4c0-2.6,0.45-4.95,1.43-7.4c0-0.01,0.44-0.9,2.42-2.46c1.27-1,5.18-3.61,14.04-6.12
		c5.51-1.56,15.68-3.42,32.87-3.42c9.33,0,17.66,0.56,24.73,1.65c7.37,1.14,14.1,2.6,20.01,4.33c5.59,1.64,10.68,3.46,15.19,5.39
		c-0.14,2.65-0.22,5.33-0.22,8.03c0,2.75,0.08,5.47,0.22,8.17C1407.08,211.06,1402.07,212.83,1396.55,214.41z M1634.04,208.88
		c-0.14,0.4-0.77,1.28-2.09,2.44c-0.75,0.66-3.78,3.01-11.49,5.48c-4.73,1.51-13.65,3.31-29.29,3.31c-8.73,0-16.25-0.58-22.34-1.72
		c-6.76-1.26-10.92-2.76-13.25-3.8c-3.29-1.47-4.89-2.68-5.57-3.28c-1.41-1.25-1.96-2.07-2.14-2.39c-0.49-0.84-0.79-1.6-0.97-2.41
		c-0.43-1.94-0.64-3.75-0.64-5.53c0-1.64,0.21-3.41,0.62-5.25c0.18-0.79,0.49-1.56,1-2.43c0.19-0.33,0.8-1.24,2.31-2.6
		c0.68-0.61,2.31-1.86,5.62-3.36c2.27-1.03,6.37-2.52,13.03-3.77c6.09-1.14,13.6-1.72,22.32-1.72c0,0,0.01,0,0.01,0
		c15.64,0,24.56,1.8,29.28,3.31c7.71,2.47,10.75,4.82,11.49,5.48c1.32,1.17,1.95,2.05,2.09,2.44c0.97,2.76,1.45,5.35,1.45,7.89
		C1635.49,203.54,1635.01,206.12,1634.04,208.88z"/>
	<g>
		<path class="st2" d="M312.58,242.82c0,7.27-1.05,13.59-3.15,18.95c-2.1,5.36-5.02,9.97-8.77,13.84c-3.75,3.86-8.25,7-13.5,9.41
			c-5.25,2.41-11.05,4.32-17.4,5.73c-6.35,1.41-13.12,2.39-20.32,2.93c-7.2,0.55-14.65,0.82-22.34,0.82l-149.51,0l0-187.31l146.81,0
			c5.9,0,11.82,0.23,17.77,0.68c5.95,0.46,11.62,1.3,17.02,2.52c5.4,1.23,10.42,2.93,15.07,5.11c4.65,2.18,8.7,5.04,12.15,8.59
			c3.45,3.54,6.15,7.82,8.1,12.82c1.95,5,2.92,10.91,2.92,17.72c0,12.18-3.3,21.84-9.9,28.97c-6.6,7.14-17,11.88-31.19,14.25
			c10,0.64,18.57,2.02,25.72,4.16c7.15,2.14,12.97,5.04,17.47,8.73c4.5,3.68,7.8,8.18,9.9,13.5
			C311.53,229.53,312.58,235.73,312.58,242.82z M256.04,236.96c0-4.27-0.8-7.7-2.4-10.29c-1.6-2.59-4.1-4.59-7.5-6
			c-3.4-1.41-7.8-2.34-13.2-2.79c-5.4-0.45-11.85-0.68-19.34-0.68l-80.38,0l0,39.67l80.38,0c7.5,0,13.95-0.23,19.34-0.68
			c5.4-0.45,9.8-1.41,13.2-2.86c3.4-1.45,5.9-3.48,7.5-6.07C255.24,244.66,256.04,241.23,256.04,236.96z M243.15,162.66
			c0-2.36-0.4-4.61-1.2-6.75c-0.8-2.13-2.25-4.02-4.35-5.66c-2.1-1.64-4.95-2.95-8.55-3.95c-3.6-1-8.2-1.5-13.8-1.5l-82.03,0
			l0,35.17l82.03,0c5.6,0,10.2-0.45,13.8-1.36c3.6-0.91,6.45-2.13,8.55-3.68c2.1-1.54,3.55-3.38,4.35-5.52
			C242.75,167.27,243.15,165.02,243.15,162.66z"/>
		<path class="st2" d="M385.11,294.49l-55.63,0l0-187.31l139.46,0c15,0,27.72,1.41,38.16,4.23c10.45,2.82,18.94,6.82,25.49,12
			c6.55,5.18,11.3,11.43,14.25,18.74c2.95,7.32,4.42,15.47,4.42,24.47c0,7.91-1.23,14.81-3.67,20.72c-2.45,5.91-5.75,10.97-9.9,15.2
			c-4.15,4.23-8.98,7.79-14.47,10.7c-5.5,2.91-11.3,5.32-17.4,7.22l67.48,74.03l-65.08,0l-62.38-68.98l-60.73,0L385.11,294.49z
			 M495.04,166.34c0-3.63-0.52-6.72-1.57-9.27c-1.05-2.54-2.87-4.61-5.47-6.2c-2.6-1.59-6.07-2.75-10.42-3.48
			c-4.35-0.73-9.77-1.09-16.27-1.09l-76.18,0l0,40.08l76.18,0c6.5,0,11.92-0.36,16.27-1.09c4.35-0.73,7.82-1.89,10.42-3.48
			c2.6-1.59,4.42-3.66,5.47-6.2C494.51,173.07,495.04,169.98,495.04,166.34z"/>
		<path class="st2" d="M579.42,294.49l0-187.31l55.63,0l0,187.31L579.42,294.49z"/>
		<path class="st2" d="M860.4,294.5L721.39,165.8l0,128.69l-55.63,0l0-187.31l60.43,0l139.16,129.24l0-129.24l55.33,0l0,187.31
			L860.4,294.5z"/>
		<path class="st2" d="M1084.1,102.42c20.19,0,38.96,1.57,56.31,4.7c17.34,3.14,33.26,7.16,47.76,12.07l0,45.81
			c-5.7-2.91-12.12-5.73-19.27-8.45c-7.15-2.73-14.92-5.13-23.32-7.22c-8.4-2.09-17.4-3.77-26.99-5.04
			c-9.6-1.27-19.7-1.91-30.29-1.91c-13.2,0-24.69,0.86-34.49,2.59c-9.8,1.73-18.2,4.05-25.19,6.95c-7,2.91-12.75,6.29-17.25,10.16
			c-4.5,3.86-8.05,7.98-10.65,12.34c-2.6,4.36-4.4,8.82-5.4,13.36c-1,4.54-1.5,8.95-1.5,13.22c0,3.73,0.42,7.77,1.27,12.13
			c0.85,4.36,2.45,8.73,4.8,13.09c2.35,4.36,5.62,8.54,9.82,12.54c4.2,4,9.67,7.54,16.42,10.63c6.75,3.09,14.87,5.57,24.37,7.43
			c9.5,1.86,20.79,2.8,33.89,2.8c6.6,0,12.35-0.18,17.25-0.55c4.9-0.36,9.37-0.86,13.42-1.5c4.05-0.63,7.85-1.41,11.4-2.32
			c3.55-0.91,7.22-1.86,11.02-2.86l0-22.63l-62.38,0l0-41.03l118.02,0l0,95.7c-7.4,2.27-15.67,4.34-24.82,6.2
			c-9.15,1.86-18.59,3.46-28.34,4.77s-19.52,2.34-29.32,3.07c-9.8,0.73-19.05,1.09-27.74,1.09c-13.5,0-26.44-0.82-38.84-2.45
			c-12.4-1.64-23.97-4.16-34.72-7.57c-10.75-3.41-20.54-7.75-29.39-13.02c-8.85-5.27-16.4-11.54-22.64-18.81
			c-6.25-7.27-11.1-15.61-14.55-25.02c-3.45-9.41-5.17-19.97-5.17-31.7c0-11.63,1.8-22.17,5.4-31.63
			c3.6-9.45,8.62-17.81,15.07-25.08c6.45-7.27,14.2-13.54,23.24-18.81c9.05-5.27,18.99-9.61,29.84-13.02
			c10.85-3.41,22.44-5.93,34.79-7.57C1058.28,103.23,1071.01,102.42,1084.1,102.42z"/>
		<path class="st2" d="M1424.47,289.05c-7.3,2.18-14.85,4.07-22.64,5.66c-7.8,1.59-16.02,2.79-24.67,3.61
			c-8.65,0.82-17.92,1.23-27.82,1.23c-20.99,0-40.32-2.05-57.96-6.14c-17.65-4.09-32.84-10.25-45.59-18.47
			c-12.75-8.22-22.67-18.49-29.77-30.81c-7.1-12.31-10.65-26.7-10.65-43.15c0-16.45,3.55-30.83,10.65-43.15
			c7.1-12.31,17.02-22.58,29.77-30.81c12.75-8.22,27.94-14.38,45.59-18.47c17.64-4.09,36.97-6.13,57.96-6.13
			c9.9,0,19.17,0.41,27.82,1.23c8.65,0.82,16.87,2.02,24.67,3.61c7.8,1.59,15.34,3.48,22.64,5.66c7.3,2.18,14.55,4.64,21.74,7.36
			l0,45.53c-5.7-2.82-11.7-5.61-17.99-8.38c-6.3-2.77-13.25-5.27-20.84-7.5c-7.6-2.23-15.95-4.04-25.04-5.45
			c-9.1-1.41-19.34-2.11-30.74-2.11c-17.5,0-32.02,1.64-43.56,4.91c-11.55,3.27-20.77,7.63-27.67,13.09
			c-6.9,5.45-11.75,11.7-14.55,18.74c-2.8,7.04-4.2,14.34-4.2,21.88c0,5,0.6,9.93,1.8,14.79c1.2,4.86,3.2,9.45,6,13.77
			c2.8,4.32,6.45,8.29,10.95,11.93c4.5,3.64,10.1,6.77,16.79,9.41c6.7,2.64,14.52,4.7,23.47,6.2c8.95,1.5,19.27,2.25,30.97,2.25
			c11.4,0,21.64-0.66,30.74-1.98c9.1-1.32,17.44-3.07,25.04-5.25c7.6-2.18,14.55-4.66,20.84-7.43c6.3-2.77,12.3-5.61,18-8.52
			l0,45.53C1439.01,284.42,1431.76,286.87,1424.47,289.05z"/>
		<path class="st2" d="M1730.94,200.99c0,16.09-3.25,30.29-9.75,42.6c-6.5,12.32-15.8,22.61-27.89,30.88
			c-12.1,8.27-26.77,14.52-44.01,18.74c-17.25,4.23-36.62,6.34-58.11,6.34c-21.5,0-40.92-2.11-58.26-6.34
			c-17.35-4.23-32.12-10.47-44.31-18.75c-12.2-8.27-21.59-18.56-28.19-30.88c-6.6-12.31-9.9-26.52-9.9-42.6
			c0-16.09,3.3-30.29,9.9-42.6c6.6-12.31,15.99-22.61,28.19-30.88c12.2-8.27,26.97-14.52,44.31-18.74
			c17.34-4.23,36.76-6.34,58.26-6.34c21.49,0,40.86,2.11,58.11,6.34c17.25,4.23,31.92,10.48,44.01,18.75
			c12.09,8.27,21.39,18.56,27.89,30.88C1727.69,170.71,1730.94,184.91,1730.94,200.99z M1674.71,200.99c0-7-1.23-13.97-3.67-20.93
			c-2.45-6.95-6.8-13.2-13.05-18.75c-6.25-5.54-14.77-10.04-25.57-13.5c-10.8-3.45-24.54-5.18-41.24-5.18
			c-11.2,0-21.05,0.8-29.54,2.38c-8.5,1.59-15.85,3.8-22.04,6.61c-6.2,2.82-11.4,6.11-15.6,9.88c-4.2,3.77-7.55,7.82-10.05,12.13
			c-2.5,4.32-4.27,8.82-5.32,13.5c-1.05,4.68-1.57,9.29-1.57,13.84c0,4.64,0.52,9.32,1.57,14.04c1.05,4.73,2.82,9.25,5.32,13.56
			c2.5,4.32,5.85,8.34,10.05,12.07c4.2,3.73,9.4,6.98,15.6,9.75c6.2,2.77,13.55,4.96,22.04,6.54c8.5,1.59,18.34,2.39,29.54,2.39
			c16.69,0,30.44-1.73,41.24-5.18c10.8-3.45,19.32-7.95,25.57-13.5c6.25-5.54,10.6-11.79,13.05-18.74
			C1673.48,214.97,1674.71,207.99,1674.71,200.99z"/>
		<path class="st2" d="M1942.49,294.52l-139.01-128.7l0,128.69l-55.63,0l0-187.31l60.43,0l139.16,129.24l0-129.24l55.33,0l0,187.31
			L1942.49,294.52z"/>
	</g>
	<path class="st3" d="M289.02,298.55c-0.54-1.24-1.64-2.23-3.11-2.79c-1.31-0.49-2.89-0.42-4.23,0.19c-2.17,1-3.42,3.35-3.03,5.72
		c1.1,6.57,1.53,21.88-4.16,27.21c-2.32,2.17-5.74,2.69-10.4,1.6c-9.33-2.47-28.71-13.8-49.23-32.83
		c-38.97-36.15-65.77-81.01-94.19-128.58l-3.09-5.15c-14.07-23.41-35.34-58.78-31.92-79.89c0.55-3.37,2.7-6.27,5.61-7.57
		c0.94-0.42,1.99-0.74,3.12-0.97c16.95-3.43,41.94,13.4,43.05,14.15c2.27,1.5,5.29,1.06,7.03-1.02c1.75-2.08,1.65-5.13-0.24-7.11
		c-22.05-22.98-53.29-48.78-76.92-41.15C52.34,45.2,43.23,57.06,40.23,75.61c-1.9,11.74-1.35,16.33,3.91,32.76
		c1.3,4.06,2.84,8.34,4.56,12.71c9.48,24.01,19.9,43,35.82,69.64c29.97,50.18,58.28,97.58,101.69,137.85
		c22.99,21.32,55.95,44.19,79.53,44.45c0.16,0,0.33,0,0.49,0c17.53,0,25.75-10.01,29.1-16.02
		C300.3,348.06,303.24,330.67,289.02,298.55z"/>
</g>
</svg>
